# xmcd CD database file
#
# Track frame offsets:
#	150
#	10981
#	28979
#	41969
#	55667
#	72420
#	86543
#	106305
#	120025
#	131081
#	150021
#	167067
#	181555
#	193937
#	212223
#	230740
#	249125
#	261915
#
# Disc length: 3651 seconds
#
# Revision: 0
# Processed by: cddbd v1.5.2PL0 Copyright (c) Steve Scherf et al.
# Submitted via: CDex 1.51
#
DISCID=ee0e4112
DTITLE=Django Reinhardt - Tresors CD 4
DYEAR=1900
DGENRE=Blues
TTITLE0=Daphné
TTITLE1=I'll Never Be The Same
TTITLE2=Marie
TTITLE3=Jersey Bounce
TTITLE4=I Surrender Dear
TTITLE5=Halleluyah
TTITLE6=Anniversary Song
TTITLE7=After You've Gone
TTITLE8=Swing 42
TTITLE9=Stormy Weather
TTITLE10=Brick Top
TTITLE11=Lover Man
TTITLE12=I Got Rhythm
TTITLE13=Honeysuckle Rose
TTITLE14=Saint-Louis Blues
TTITLE15=Sophisticated Lady
TTITLE16=Darktown Strutter's Ball
TTITLE17=Royal Garden Blues
EXTD=
EXTT0=
EXTT1=
EXTT2=
EXTT3=
EXTT4=
EXTT5=
EXTT6=
EXTT7=
EXTT8=
EXTT9=
EXTT10=
EXTT11=
EXTT12=
EXTT13=
EXTT14=
EXTT15=
EXTT16=
EXTT17=
PLAYORDER=
